Coordinates
version=1
nRows=17
nColumns=38
inDegrees=no

Units are S.I. units (second, meters, Newtons, ...)
If the header above contains a line with 'inDegrees', this indicates whether rotational values are in degrees (yes) or radians (no).

endheader
time	pelvis_tilt	pelvis_list	pelvis_rotation	pelvis_tx	pelvis_ty	pelvis_tz	hip_flexion_r	hip_adduction_r	hip_rotation_r	knee_angle_r	ankle_angle_r	subtalar_angle_r	mtp_angle_r	hip_flexion_l	hip_adduction_l	hip_rotation_l	knee_angle_l	ankle_angle_l	subtalar_angle_l	mtp_angle_l	lumbar_extension	lumbar_bending	lumbar_rotation	arm_flex_r	arm_add_r	arm_rot_r	elbow_flex_r	pro_sup_r	wrist_flex_r	wrist_dev_r	arm_flex_l	arm_add_l	arm_rot_l	elbow_flex_l	pro_sup_l	wrist_flex_l	wrist_dev_l
10	-2.64318	1.26401	0.987233	0.728246	0.478284	0.950889	0.531257	0.0783313	-0.131609	0.690566	0.166095	0	0	0.0584774	-0.0952797	-0.221008	0	0.150484	0	0	-0.155853	0.213645	0.137005	0.6268	-0.575659	0.612292	0.97596	1.0672	0	0	0.552111	-0.186831	0.517244	0.996643	1.12911	0	0
10.01	-2.64175	1.25885	0.987159	0.728465	0.475981	0.950651	0.534962	0.0842006	-0.107568	0.666725	0.164986	0	0	0.0619185	-0.0983458	-0.219269	0	0.152532	0	0	-0.152836	0.21756	0.134093	0.619819	-0.579202	0.611726	0.988583	1.0669	0	0	0.540232	-0.189167	0.509431	1.01166	1.13616	0	0
10.02	-2.6321	1.25631	0.980615	0.728652	0.473228	0.950657	0.542758	0.0862488	-0.136766	0.658221	0.163305	0	0	0.0608387	-0.10223	-0.217599	0.00101996	0.154593	0	0	-0.152685	0.221915	0.130597	0.611958	-0.582364	0.610456	0.998207	1.06812	0	0	0.529953	-0.19183	0.506053	1.02385	1.13778	0	0
10.03	-2.63437	1.25161	0.983901	0.728768	0.470842	0.950351	0.546577	0.0907586	-0.11032	0.633442	0.161052	0	0	0.0643567	-0.10413	-0.216258	0.00389756	0.156464	0	0	-0.149128	0.224157	0.128096	0.604414	-0.585494	0.610263	1.0074	1.07093	0	0	0.519237	-0.195529	0.50341	1.03744	1.13402	0	0
10.04	-2.6339	1.24709	0.984071	0.728719	0.468156	0.950061	0.553664	0.0945255	-0.109932	0.615886	0.156608	0	0	0.0665037	-0.106848	-0.216413	0.00619198	0.158554	0	0	-0.146097	0.226914	0.125556	0.596849	-0.588601	0.611152	1.01772	1.07153	0	0	0.50644	-0.199809	0.497889	1.05294	1.13621	0	0
10.05	-2.63273	1.24257	0.983651	0.728643	0.465387	0.949764	0.560581	0.0979113	-0.111223	0.598192	0.151937	0	0	0.0683047	-0.109827	-0.216178	0.00821138	0.160607	0	0	-0.143191	0.229902	0.12271	0.589281	-0.59183	0.611678	1.02929	1.07185	0	0	0.493054	-0.204262	0.491887	1.06855	1.13916	0	0
10.06	-2.63186	1.23796	0.983498	0.728536	0.462557	0.949439	0.567899	0.101016	-0.11315	0.581326	0.147399	0	0	0.0702398	-0.11287	-0.216072	0.0104702	0.162838	0	0	-0.140069	0.232921	0.119595	0.581414	-0.594884	0.611188	1.04194	1.07192	0	0	0.479034	-0.208831	0.485426	1.08423	1.14363	0	0
10.07	-2.63172	1.23324	0.984082	0.728385	0.459682	0.949074	0.575717	0.103765	-0.115691	0.565251	0.142661	0	0	0.0724156	-0.115744	-0.216054	0.0127949	0.16489	0	0	-0.136646	0.235759	0.116633	0.57283	-0.597872	0.609303	1.055	1.07231	0	0	0.465208	-0.212972	0.479226	1.09961	1.14849	0	0
10.08	-2.63279	1.22837	0.985652	0.72816	0.45675	0.948651	0.584004	0.106305	-0.118162	0.549356	0.13695	0	0	0.0745984	-0.118372	-0.216404	0.014519	0.166785	0	0	-0.132851	0.238306	0.114141	0.563413	-0.600853	0.606656	1.06795	1.07316	0	0	0.451506	-0.216512	0.472862	1.11494	1.15385	0	0
10.09	-2.63451	1.22344	0.987675	0.727861	0.453757	0.948198	0.592527	0.108808	-0.120454	0.533998	0.131279	0	0	0.076879	-0.12093	-0.217105	0.0163145	0.168877	0	0	-0.128808	0.240622	0.112285	0.553343	-0.604025	0.604127	1.08051	1.07424	0	0	0.437989	-0.219539	0.466756	1.12982	1.15972	0	0
10.1	-2.6369	1.21853	0.990103	0.727504	0.450726	0.947742	0.601321	0.111195	-0.122375	0.519409	0.125807	0	0	0.0789132	-0.123352	-0.217558	0.0176681	0.17067	0	0	-0.124536	0.242639	0.110983	0.543089	-0.607305	0.602154	1.09226	1.07548	0	0	0.424797	-0.222071	0.461067	1.14367	1.16583	0	0
10.11	-2.63953	1.21343	0.99267	0.727068	0.44764	0.947277	0.610384	0.113696	-0.12452	0.505448	0.118645	0	0	0.0811207	-0.125932	-0.218139	0.0191632	0.172527	0	0	-0.119858	0.244559	0.110013	0.532351	-0.610861	0.600414	1.10414	1.07688	0	0	0.411426	-0.224284	0.455511	1.15707	1.17225	0	0
10.12	-2.6425	1.20802	0.99569	0.726598	0.444532	0.946808	0.619733	0.116101	-0.12723	0.491637	0.10964	0	0	0.0838121	-0.128596	-0.218552	0.0208649	0.174209	0	0	-0.114662	0.24646	0.10905	0.521191	-0.614809	0.598964	1.11649	1.07871	0	0	0.398077	-0.226196	0.450237	1.16987	1.17882	0	0
10.13	-2.64505	1.20233	0.998428	0.726081	0.44138	0.946343	0.629078	0.118633	-0.130428	0.477852	0.0993999	0	0	0.0870824	-0.131653	-0.219104	0.0233527	0.17606	0	0	-0.109125	0.248625	0.108105	0.509512	-0.619132	0.597295	1.12931	1.08163	0	0	0.384603	-0.227871	0.444873	1.18228	1.18665	0	0
10.14	-2.64679	1.19693	1.00052	0.725517	0.438151	0.945939	0.637739	0.121101	-0.134044	0.46422	0.0874744	0	0	0.0899241	-0.134901	-0.219492	0.0260646	0.177863	0	0	-0.103906	0.250804	0.107476	0.49665	-0.623233	0.592605	1.14256	1.08442	0	0	0.371524	-0.22965	0.440605	1.19403	1.19394	0	0
10.15	-2.64716	1.19172	1.00168	0.724917	0.434863	0.945608	0.645503	0.123631	-0.138377	0.45028	0.0738365	0	0	0.0924524	-0.138594	-0.21937	0.0291295	0.179583	0	0	-0.0991165	0.253303	0.107046	0.482751	-0.627275	0.585866	1.15607	1.08724	0	0	0.358754	-0.231603	0.437198	1.20535	1.20038	0	0
10.16	-2.64721	1.18702	1.00299	0.724339	0.431534	0.945353	0.652397	0.125618	-0.143538	0.436316	0.0586228	0	0	0.0944835	-0.142033	-0.21884	0.031986	0.180865	0	0	-0.0949059	0.255671	0.106643	0.468467	-0.631293	0.578801	1.16891	1.09054	0	0	0.346302	-0.233531	0.434224	1.21616	1.20604	0	0
